<?xml version="1.0" standalone="no"?>
<!DOCTYPE svg PUBLIC "-//W3C//DTD SVG 20010904//EN"
 "http://www.w3.org/TR/2001/REC-SVG-20010904/DTD/svg10.dtd">
<svg version="1.0" xmlns="http://www.w3.org/2000/svg"
 width="840.000000pt" height="846.000000pt" viewBox="0 0 840.000000 846.000000"
 preserveAspectRatio="xMidYMid meet">

<g transform="translate(0.000000,846.000000) scale(0.100000,-0.100000)"
fill="#000000" stroke="none">
<path d="M3755 8038 c-82 -5 -154 -14 -160 -19 -9 -9 80 -607 93 -621 7 -6
363 11 371 18 5 4 -28 579 -35 612 -5 25 -11 26 -269 10z"/>
<path d="M2750 7825 c-96 -33 -224 -84 -285 -114 -60 -29 -127 -60 -147 -68
-21 -8 -38 -19 -38 -23 0 -18 274 -570 283 -570 5 0 56 25 112 55 57 30 109
55 116 55 15 0 298 105 306 114 3 3 -9 42 -27 88 -18 46 -58 182 -89 303 l-56
221 -175 -61z"/>
<path d="M1640 7210 c-91 -60 -367 -326 -448 -431 -11 -14 18 -44 222 -228
129 -116 237 -211 240 -211 2 0 32 33 65 74 34 41 121 125 193 187 73 62 139
118 147 125 11 10 -19 55 -178 263 -106 138 -193 251 -194 251 -1 0 -22 -14
-47 -30z"/>
<path d="M5966 7063 c5 -30 314 -2194 314 -2203 0 -3 148 143 330 325 l329
329 34 -75 c83 -182 167 -449 211 -669 41 -204 51 -321 51 -565 0 -234 -10
-348 -46 -555 -216 -1237 -1145 -2232 -2362 -2529 -979 -240 -1973 -30 -2767
585 -144 111 -419 385 -526 524 -360 466 -567 951 -654 1535 -40 269 -36 665
9 928 13 79 15 110 7 113 -6 2 -149 24 -316 47 -270 39 -306 42 -311 28 -13
-33 -39 -253 -50 -426 -37 -559 51 -1121 254 -1640 351 -891 1031 -1626 1892
-2045 1071 -520 2331 -513 3393 19 1062 532 1814 1514 2046 2671 52 257 69
442 70 740 1 377 -28 616 -119 966 -63 244 -189 577 -298 790 l-26 49 382 382
c209 210 379 384 377 386 -5 3 -2207 318 -2222 317 -4 0 -5 -12 -2 -27z"/>
<path d="M3820 6276 l0 -273 -38 -7 c-74 -11 -217 -58 -298 -95 -303 -142
-506 -391 -569 -696 -21 -101 -21 -276 0 -373 34 -164 114 -302 251 -432 168
-160 386 -279 779 -425 123 -46 275 -121 353 -174 77 -52 154 -137 189 -209
26 -52 28 -67 28 -167 0 -104 -2 -114 -33 -177 -59 -120 -169 -202 -338 -250
-67 -19 -103 -22 -239 -22 -259 0 -469 52 -741 183 l-141 68 -76 -266 c-43
-146 -77 -271 -77 -278 0 -18 193 -109 325 -152 148 -49 291 -78 457 -93 l128
-11 2 -316 3 -316 258 -3 257 -2 0 304 0 304 78 17 c289 65 529 210 684 415
64 84 142 243 170 345 19 68 22 106 22 255 -1 148 -4 187 -22 255 -96 350
-358 577 -932 805 -468 187 -644 320 -670 509 -16 118 18 237 91 316 109 118
290 164 568 144 206 -14 397 -63 574 -146 42 -20 79 -34 80 -32 4 5 157 523
157 531 0 9 -141 70 -243 105 -131 44 -274 72 -395 79 -53 3 -112 7 -129 10
l-33 5 0 269 0 270 -240 0 -240 0 0 -274z"/>
<path d="M709 6112 c-31 -48 -86 -154 -123 -235 -36 -82 -72 -158 -80 -170
-15 -25 -50 -127 -45 -131 16 -15 593 -216 599 -210 5 5 18 38 30 73 19 59
124 275 186 384 17 29 24 51 18 57 -12 12 -516 320 -523 320 -3 0 -31 -39 -62
-88z"/>
</g>
</svg>
